{"asset":{"version":"2.0","generator":"Blockbench 4.10.4 glTF exporter"},"scenes":[{"nodes":[5],"name":"blockbench_export"}],"scene":0,"nodes":[{"name":"main","mesh":0},{"translation":[0,-0.5,0],"name":"hat","mesh":1},{"translation":[0,-0.5,0],"name":"hat","mesh":2},{"translation":[0,0.5,0],"name":"hat","children":[1,2]},{"name":"main","children":[0,3]},{"children":[4]}],"bufferViews":[{"buffer":0,"byteOffset":0,"byteLength":288,"target":34962,"byteStride":12},{"buffer":0,"byteOffset":288,"byteLength":288,"target":34962,"byteStride":12},{"buffer":0,"byteOffset":576,"byteLength":192,"target":34962,"byteStride":8},{"buffer":0,"byteOffset":768,"byteLength":72,"target":34963},{"buffer":0,"byteOffset":840,"byteLength":288,"target":34962,"byteStride":12},{"buffer":0,"byteOffset":1128,"byteLength":288,"target":34962,"byteStride":12},{"buffer":0,"byteOffset":1416,"byteLength":192,"target":34962,"byteStride":8},{"buffer":0,"byteOffset":1608,"byteLength":72,"target":34963},{"buffer":0,"byteOffset":1680,"byteLength":288,"target":34962,"byteStride":12},{"buffer":0,"byteOffset":1968,"byteLength":288,"target":34962,"byteStride":12},{"buffer":0,"byteOffset":2256,"byteLength":192,"target":34962,"byteStride":8},{"buffer":0,"byteOffset":2448,"byteLength":72,"target":34963},{"buffer":0,"byteOffset":2520,"byteLength":64},{"buffer":0,"byteOffset":2584,"byteLength":256},{"buffer":0,"byteOffset":2840,"byteLength":64},{"buffer":0,"byteOffset":2904,"byteLength":192},{"buffer":0,"byteOffset":3096,"byteLength":72},{"buffer":0,"byteOffset":3168,"byteLength":288},{"buffer":0,"byteOffset":3456,"byteLength":72},{"buffer":0,"byteOffset":3528,"byteLength":216},{"buffer":0,"byteOffset":3744,"byteLength":24},{"buffer":0,"byteOffset":3768,"byteLength":72}],"buffers":[{"byteLength":3840,"uri":"data:application/octet-stream;base64,"}],"accessors":[{"bufferView":0,"componentType":5126,"count":24,"max":[0.125,0.5,0.125],"min":[-0.125,0,-0.125],"type":"VEC3"},{"bufferView":1,"componentType":5126,"count":24,"max":[1,1,1],"min":[-1,-1,-1],"type":"VEC3"},{"bufferView":2,"componentType":5126,"count":24,"max":[0.577880859375,0.484130859375],"min":[0.328369140625,0.297119140625],"type":"VEC2"},{"bufferView":3,"componentType":5123,"count":36,"max":[23],"min":[0],"type":"SCALAR"},{"bufferView":4,"componentType":5126,"count":24,"max":[0.3125,0.6875,0.3125],"min":[-0.3125,0.5,-0.3125],"type":"VEC3"},{"bufferView":5,"componentType":5126,"count":24,"max":[1,1,1],"min":[-1,-1,-1],"type":"VEC3"},{"bufferView":6,"componentType":5126,"count":24,"max":[0.624755859375,0.202880859375],"min":[0.000244140625,0.000244140625],"type":"VEC2"},{"bufferView":7,"componentType":5123,"count":36,"max":[23],"min":[0],"type":"SCALAR"},{"bufferView":8,"componentType":5126,"count":24,"max":[0.1875,0.8125,0.1875],"min":[-0.1875,0.6875,-0.1875],"type":"VEC3"},{"bufferView":9,"componentType":5126,"count":24,"max":[1,1,1],"min":[-1,-1,-1],"type":"VEC3"},{"bufferView":10,"componentType":5126,"count":24,"max":[0.374755859375,0.343505859375],"min":[0.000244140625,0.218994140625],"type":"VEC2"},{"bufferView":11,"componentType":5123,"count":36,"max":[23],"min":[0],"type":"SCALAR"},{"bufferView":12,"componentType":5126,"count":16,"max":[1],"min":[0],"type":"SCALAR"},{"bufferView":13,"componentType":5126,"count":16,"max":[0.129409521818161,0.017037086188793182,0.129409521818161,1],"min":[0,-0.017037086188793182,-0.129409521818161,0.9829629063606262],"type":"VEC4"},{"bufferView":14,"componentType":5126,"count":16,"max":[1],"min":[0],"type":"SCALAR"},{"bufferView":15,"componentType":5126,"count":16,"max":[0,0.125,0],"min":[0,0,0],"type":"VEC3"},{"bufferView":16,"componentType":5126,"count":18,"max":[1.083299994468689],"min":[0],"type":"SCALAR"},{"bufferView":17,"componentType":5126,"count":18,"max":[0.16131442785263062,0.0006658235797658563,0.0055860308930277824,1],"min":[-0.2164396196603775,-0.020715679973363876,-0.08465807139873505,0.9762960076332092],"type":"VEC4"},{"bufferView":18,"componentType":5126,"count":18,"max":[1],"min":[0],"type":"SCALAR"},{"bufferView":19,"componentType":5126,"count":18,"max":[0,0.0625,0],"min":[0,-0.004538537468761206,0],"type":"VEC3"},{"bufferView":20,"componentType":5126,"count":6,"max":[1],"min":[0],"type":"SCALAR"},{"bufferView":21,"componentType":5126,"count":6,"max":[1.2000000476837158,1.2000000476837158,1.2000000476837158],"min":[1,1,1],"type":"VEC3"}],"materials":[{"pbrMetallicRoughness":{"metallicFactor":0,"roughnessFactor":1,"baseColorTexture":{"index":0}},"alphaMode":"MASK","alphaCutoff":0.05,"doubleSided":true}],"textures":[{"sampler":0,"source":0,"name":"honguito.png"}],"samplers":[{"magFilter":9728,"minFilter":9728,"wrapS":33071,"wrapT":33071}],"images":[{"mimeType":"image/png","uri":"data:image/png;base64,"}],"meshes":[{"primitives":[{"mode":4,"attributes":{"POSITION":0,"NORMAL":1,"TEXCOORD_0":2},"indices":3,"material":0}]},{"primitives":[{"mode":4,"attributes":{"POSITION":4,"NORMAL":5,"TEXCOORD_0":6},"indices":7,"material":0}]},{"primitives":[{"mode":4,"attributes":{"POSITION":8,"NORMAL":9,"TEXCOORD_0":10},"indices":11,"material":0}]}],"animations":[{"name":"animation.geometry.honguito.walk","samplers":[{"input":12,"output":13,"interpolation":"LINEAR"},{"input":14,"output":15,"interpolation":"LINEAR"}],"channels":[{"sampler":0,"target":{"node":4,"path":"rotation"}},{"sampler":1,"target":{"node":4,"path":"translation"}}]},{"name":"animation.geometry.honguito.hit","samplers":[{"input":16,"output":17,"interpolation":"LINEAR"},{"input":18,"output":19,"interpolation":"LINEAR"},{"input":20,"output":21,"interpolation":"LINEAR"}],"channels":[{"sampler":0,"target":{"node":4,"path":"rotation"}},{"sampler":1,"target":{"node":4,"path":"translation"}},{"sampler":2,"target":{"node":3,"path":"scale"}}]}]}