{"asset":{"version":"2.0","generator":"Blockbench 4.10.4 glTF exporter"},"scenes":[{"nodes":[13],"name":"blockbench_export"}],"scene":0,"nodes":[{"translation":[0,-1.5,0],"name":"cube","mesh":0},{"translation":[0,1.5,0],"name":"cube","children":[0]},{"translation":[0,-1.5,0],"name":"s2","mesh":1},{"translation":[0,1.5,0],"name":"s2","children":[2]},{"translation":[0,-1.5,0],"name":"s1","mesh":2},{"translation":[0,1.5,0],"name":"s1","children":[4]},{"translation":[0,-0.8125,0],"name":"b1","mesh":3},{"translation":[0,0.8125,0],"name":"b1","children":[6]},{"translation":[0,-0.5,0],"name":"b2","mesh":4},{"translation":[0,0.5,0],"name":"b2","children":[8]},{"translation":[0,-0.1875,0],"name":"b3","mesh":5},{"translation":[0,0.1875,0],"name":"b3","children":[10]},{"name":"main","children":[1,3,5,7,9,11]},{"children":[12]}],"bufferViews":[{"buffer":0,"byteOffset":0,"byteLength":288,"target":34962,"byteStride":12},{"buffer":0,"byteOffset":288,"byteLength":288,"target":34962,"byteStride":12},{"buffer":0,"byteOffset":576,"byteLength":192,"target":34962,"byteStride":8},{"buffer":0,"byteOffset":768,"byteLength":72,"target":34963},{"buffer":0,"byteOffset":840,"byteLength":288,"target":34962,"byteStride":12},{"buffer":0,"byteOffset":1128,"byteLength":288,"target":34962,"byteStride":12},{"buffer":0,"byteOffset":1416,"byteLength":192,"target":34962,"byteStride":8},{"buffer":0,"byteOffset":1608,"byteLength":72,"target":34963},{"buffer":0,"byteOffset":1680,"byteLength":288,"target":34962,"byteStride":12},{"buffer":0,"byteOffset":1968,"byteLength":288,"target":34962,"byteStride":12},{"buffer":0,"byteOffset":2256,"byteLength":192,"target":34962,"byteStride":8},{"buffer":0,"byteOffset":2448,"byteLength":72,"target":34963},{"buffer":0,"byteOffset":2520,"byteLength":288,"target":34962,"byteStride":12},{"buffer":0,"byteOffset":2808,"byteLength":288,"target":34962,"byteStride":12},{"buffer":0,"byteOffset":3096,"byteLength":192,"target":34962,"byteStride":8},{"buffer":0,"byteOffset":3288,"byteLength":72,"target":34963},{"buffer":0,"byteOffset":3360,"byteLength":288,"target":34962,"byteStride":12},{"buffer":0,"byteOffset":3648,"byteLength":288,"target":34962,"byteStride":12},{"buffer":0,"byteOffset":3936,"byteLength":192,"target":34962,"byteStride":8},{"buffer":0,"byteOffset":4128,"byteLength":72,"target":34963},{"buffer":0,"byteOffset":4200,"byteLength":288,"target":34962,"byteStride":12},{"buffer":0,"byteOffset":4488,"byteLength":288,"target":34962,"byteStride":12},{"buffer":0,"byteOffset":4776,"byteLength":192,"target":34962,"byteStride":8},{"buffer":0,"byteOffset":4968,"byteLength":72,"target":34963},{"buffer":0,"byteOffset":5040,"byteLength":156},{"buffer":0,"byteOffset":5196,"byteLength":468},{"buffer":0,"byteOffset":5664,"byteLength":16},{"buffer":0,"byteOffset":5680,"byteLength":64},{"buffer":0,"byteOffset":5744,"byteLength":16},{"buffer":0,"byteOffset":5760,"byteLength":64},{"buffer":0,"byteOffset":5824,"byteLength":16},{"buffer":0,"byteOffset":5840,"byteLength":64},{"buffer":0,"byteOffset":5904,"byteLength":156},{"buffer":0,"byteOffset":6060,"byteLength":468},{"buffer":0,"byteOffset":6528,"byteLength":16},{"buffer":0,"byteOffset":6544,"byteLength":64},{"buffer":0,"byteOffset":6608,"byteLength":156},{"buffer":0,"byteOffset":6764,"byteLength":468},{"buffer":0,"byteOffset":7232,"byteLength":16},{"buffer":0,"byteOffset":7248,"byteLength":64},{"buffer":0,"byteOffset":7312,"byteLength":12},{"buffer":0,"byteOffset":7324,"byteLength":48}],"buffers":[{"byteLength":7372,"uri":"data:application/octet-stream;base64,"}],"accessors":[{"bufferView":0,"componentType":5126,"count":24,"max":[0.5,2,0.5],"min":[-0.5,1,-0.5],"type":"VEC3"},{"bufferView":1,"componentType":5126,"count":24,"max":[1,1,1],"min":[-1,-1,-1],"type":"VEC3"},{"bufferView":2,"componentType":5126,"count":24,"max":[0.51947021484375,0.32025146484375],"min":[0.26959228515625,0.19537353515625],"type":"VEC2"},{"bufferView":3,"componentType":5123,"count":36,"max":[23],"min":[0],"type":"SCALAR"},{"bufferView":4,"componentType":5126,"count":24,"max":[0.0000625000029685907,2.5625,1.0625],"min":[0,0.4375,-1.0625],"type":"VEC3"},{"bufferView":5,"componentType":5126,"count":24,"max":[1,1,1],"min":[-1,-1,-1],"type":"VEC3"},{"bufferView":6,"componentType":5126,"count":24,"max":[0.26568603515625,0.26556396484375],"min":[0.00006103515625,0.00006103515625],"type":"VEC2"},{"bufferView":7,"componentType":5123,"count":36,"max":[23],"min":[0],"type":"SCALAR"},{"bufferView":8,"componentType":5126,"count":24,"max":[1.0625,2.5625,0.0000625000029685907],"min":[-1.0625,0.4375,0],"type":"VEC3"},{"bufferView":9,"componentType":5126,"count":24,"max":[1,1,1],"min":[-1,-1,-1],"type":"VEC3"},{"bufferView":10,"componentType":5126,"count":24,"max":[0.26556396484375,0.40228271484375],"min":[-0.00006103515625,0.26947021484375],"type":"VEC2"},{"bufferView":11,"componentType":5123,"count":36,"max":[23],"min":[0],"type":"SCALAR"},{"bufferView":12,"componentType":5126,"count":24,"max":[0.75,0.875,0.75],"min":[-0.75,0.75,-0.75],"type":"VEC3"},{"bufferView":13,"componentType":5126,"count":24,"max":[1,1,1],"min":[-1,-1,-1],"type":"VEC3"},{"bufferView":14,"componentType":5126,"count":24,"max":[0.51165771484375,0.10150146484375],"min":[0.13677978515625,0.00006103515625],"type":"VEC2"},{"bufferView":15,"componentType":5123,"count":36,"max":[23],"min":[0],"type":"SCALAR"},{"bufferView":16,"componentType":5126,"count":24,"max":[0.625,0.5625,0.625],"min":[-0.625,0.4375,-0.625],"type":"VEC3"},{"bufferView":17,"componentType":5126,"count":24,"max":[1,1,1],"min":[-1,-1,-1],"type":"VEC3"},{"bufferView":18,"componentType":5126,"count":24,"max":[0.58197021484375,0.19134521484375],"min":[0.26959228515625,0.10552978515625],"type":"VEC2"},{"bufferView":19,"componentType":5123,"count":36,"max":[23],"min":[0],"type":"SCALAR"},{"bufferView":20,"componentType":5126,"count":24,"max":[0.5,0.25,0.5],"min":[-0.5,0.125,-0.5],"type":"VEC3"},{"bufferView":21,"componentType":5126,"count":24,"max":[1,1,1],"min":[-1,-1,-1],"type":"VEC3"},{"bufferView":22,"componentType":5126,"count":24,"max":[0.51947021484375,0.39447021484375],"min":[0.26959228515625,0.32427978515625],"type":"VEC2"},{"bufferView":23,"componentType":5123,"count":36,"max":[23],"min":[0],"type":"SCALAR"},{"bufferView":24,"componentType":5126,"count":39,"max":[2],"min":[0],"type":"SCALAR"},{"bufferView":25,"componentType":5126,"count":39,"max":[0,0.0625,0],"min":[0,0,0],"type":"VEC3"},{"bufferView":26,"componentType":5126,"count":4,"max":[2],"min":[0],"type":"SCALAR"},{"bufferView":27,"componentType":5126,"count":4,"max":[0.4330126941204071,0,0.4330126941204071,1],"min":[-0.4330126941204071,-0.75,-0.4330126941204071,0.25],"type":"VEC4"},{"bufferView":28,"componentType":5126,"count":4,"max":[2],"min":[0],"type":"SCALAR"},{"bufferView":29,"componentType":5126,"count":4,"max":[0.4330126941204071,0,0.4330126941204071,1],"min":[-0.4330126941204071,-0.75,-0.4330126941204071,0.25],"type":"VEC4"},{"bufferView":30,"componentType":5126,"count":4,"max":[2],"min":[0],"type":"SCALAR"},{"bufferView":31,"componentType":5126,"count":4,"max":[0,0.8660253882408142,0,1],"min":[0,0,0,-1],"type":"VEC4"},{"bufferView":32,"componentType":5126,"count":39,"max":[2],"min":[0],"type":"SCALAR"},{"bufferView":33,"componentType":5126,"count":39,"max":[0,0.9375,0],"min":[0,0.8125,0],"type":"VEC3"},{"bufferView":34,"componentType":5126,"count":4,"max":[2],"min":[0],"type":"SCALAR"},{"bufferView":35,"componentType":5126,"count":4,"max":[0,0,0,1],"min":[0,-0.8660253882408142,0,-1],"type":"VEC4"},{"bufferView":36,"componentType":5126,"count":39,"max":[2],"min":[0],"type":"SCALAR"},{"bufferView":37,"componentType":5126,"count":39,"max":[0,0.625,0],"min":[0,0.5,0],"type":"VEC3"},{"bufferView":38,"componentType":5126,"count":4,"max":[2],"min":[0],"type":"SCALAR"},{"bufferView":39,"componentType":5126,"count":4,"max":[0,0.8660253882408142,0,1],"min":[0,0,0,-1],"type":"VEC4"},{"bufferView":40,"componentType":5126,"count":3,"max":[2],"min":[0],"type":"SCALAR"},{"bufferView":41,"componentType":5126,"count":3,"max":[0,0,0,1],"min":[0,-1,0,6.123234262925839e-17],"type":"VEC4"}],"materials":[{"pbrMetallicRoughness":{"metallicFactor":0,"roughnessFactor":1,"baseColorTexture":{"index":0}},"alphaMode":"MASK","alphaCutoff":0.05,"doubleSided":true}],"textures":[{"sampler":0,"source":0,"name":"powerup.png"}],"samplers":[{"magFilter":9728,"minFilter":9728,"wrapS":33071,"wrapT":33071}],"images":[{"mimeType":"image/png","uri":"data:image/png;base64,"}],"meshes":[{"primitives":[{"mode":4,"attributes":{"POSITION":0,"NORMAL":1,"TEXCOORD_0":2},"indices":3,"material":0}]},{"primitives":[{"mode":4,"attributes":{"POSITION":4,"NORMAL":5,"TEXCOORD_0":6},"indices":7,"material":0}]},{"primitives":[{"mode":4,"attributes":{"POSITION":8,"NORMAL":9,"TEXCOORD_0":10},"indices":11,"material":0}]},{"primitives":[{"mode":4,"attributes":{"POSITION":12,"NORMAL":13,"TEXCOORD_0":14},"indices":15,"material":0}]},{"primitives":[{"mode":4,"attributes":{"POSITION":16,"NORMAL":17,"TEXCOORD_0":18},"indices":19,"material":0}]},{"primitives":[{"mode":4,"attributes":{"POSITION":20,"NORMAL":21,"TEXCOORD_0":22},"indices":23,"material":0}]}],"animations":[{"name":"animation.powerup.idle","samplers":[{"input":24,"output":25,"interpolation":"LINEAR"},{"input":26,"output":27,"interpolation":"LINEAR"},{"input":28,"output":29,"interpolation":"LINEAR"},{"input":30,"output":31,"interpolation":"LINEAR"},{"input":32,"output":33,"interpolation":"LINEAR"},{"input":34,"output":35,"interpolation":"LINEAR"},{"input":36,"output":37,"interpolation":"LINEAR"},{"input":38,"output":39,"interpolation":"LINEAR"},{"input":40,"output":41,"interpolation":"LINEAR"}],"channels":[{"sampler":0,"target":{"node":12,"path":"translation"}},{"sampler":1,"target":{"node":3,"path":"rotation"}},{"sampler":2,"target":{"node":5,"path":"rotation"}},{"sampler":3,"target":{"node":7,"path":"rotation"}},{"sampler":4,"target":{"node":7,"path":"translation"}},{"sampler":5,"target":{"node":9,"path":"rotation"}},{"sampler":6,"target":{"node":9,"path":"translation"}},{"sampler":7,"target":{"node":11,"path":"rotation"}},{"sampler":8,"target":{"node":1,"path":"rotation"}}]}]}